<svg version="1.1" xmlns="http://www.w3.org/2000/svg" viewBox="0 0 1011 1074" width="1011" height="1074">
  <!-- svg-source:excalidraw -->
  
  <defs>
    <style class="style-fonts">
      @font-face {
        font-family: "Virgil";
        src: url("https://excalidraw.com/Virgil.woff2");
      }
      @font-face {
        font-family: "Cascadia";
        src: url("https://excalidraw.com/Cascadia.woff2");
      }
      @font-face {
        font-family: "Assistant";
        src: url("https://excalidraw.com/Assistant-Regular.woff2");
      }
    </style>
    
  </defs>
  <rect x="0" y="0" width="1011" height="1074" fill="#ffffff"></rect><g stroke-linecap="round" transform="translate(852 637) rotate(0 74 62.5)"><path d="M0 0 C58.03 3.04, 118.4 0.83, 148 0 M0 0 C56.92 0.22, 112.17 0.06, 148 0 M148 0 C150.59 50.79, 148.15 99.82, 148 125 M148 0 C146.92 33.92, 146.93 69.16, 148 125 M148 125 C109.78 127.09, 65.96 123.64, 0 125 M148 125 C102.75 125.72, 58.81 126.35, 0 125 M0 125 C-1.39 96.89, -1.47 70.9, 0 0 M0 125 C-1.18 93.66, -1.06 61.76, 0 0" stroke="#1e1e1e" stroke-width="2" fill="none"></path></g><g stroke-linecap="round" transform="translate(851 480) rotate(0 74 62.5)"><path d="M0 0 C54.76 2.12, 107.4 1.22, 148 0 M0 0 C58.58 -0.45, 116.68 0.34, 148 0 M148 0 C150.51 44.45, 150.51 83.37, 148 125 M148 0 C147.14 46.34, 146.99 93.61, 148 125 M148 125 C101.32 126.13, 55.35 124.4, 0 125 M148 125 C106.15 123.21, 65.49 123.17, 0 125 M0 125 C0.77 76.05, 1.85 29.35, 0 0 M0 125 C0.12 92.57, -1 60.38, 0 0" stroke="#1e1e1e" stroke-width="2" fill="none"></path></g><g transform="translate(869 686) rotate(0 52.36666488647461 12.5)"><text x="0" y="0" font-family="Virgil, Segoe UI Emoji" font-size="20px" fill="#1e1e1e" text-anchor="start" style="white-space: pre;" direction="ltr" dominant-baseline="text-before-edge">hull breach</text></g><g transform="translate(868 529) rotate(0 48.46666717529297 12.5)"><text x="0" y="0" font-family="Virgil, Segoe UI Emoji" font-size="20px" fill="#1e1e1e" text-anchor="start" style="white-space: pre;" direction="ltr" dominant-baseline="text-before-edge">navigation</text></g><g stroke-linecap="round" transform="translate(908 622) rotate(0 13.5 3)"><path d="M0 0 C10.08 -0.76, 20.24 -0.88, 27 0 M0 0 C6.82 -0.31, 13.38 -0.06, 27 0 M27 0 C27.1 1.88, 27.03 4.31, 27 6 M27 0 C26.93 1.28, 27 2.5, 27 6 M27 6 C18.96 6.65, 11.03 6.67, 0 6 M27 6 C16.25 6.02, 5.25 6.04, 0 6 M0 6 C0.03 4.47, 0.23 3.01, 0 0 M0 6 C0.1 4.67, 0.09 3.48, 0 0" stroke="#1e1e1e" stroke-width="2" fill="none"></path></g><g stroke-linecap="round" transform="translate(909 767) rotate(0 21.5 4)"><path d="M0 0 C10.56 -0.39, 21.54 0.81, 43 0 M0 0 C11.05 -0.32, 21.76 -0.16, 43 0 M43 0 C43.3 1.53, 42.88 2.93, 43 8 M43 0 C42.97 2.19, 42.92 4.33, 43 8 M43 8 C33.95 7.28, 24.6 8.25, 0 8 M43 8 C28.01 7.64, 13.39 8.21, 0 8 M0 8 C-0.02 5.63, -0.41 2.26, 0 0 M0 8 C-0.03 5.53, 0 2.77, 0 0" stroke="#1e1e1e" stroke-width="2" fill="none"></path></g><g stroke-linecap="round" transform="translate(832 681) rotate(0 4.5 20.5)"><path d="M0 0 C2.27 0.3, 4.87 -0.33, 9 0 M0 0 C2.03 -0.21, 4.19 0.16, 9 0 M9 0 C9.98 8.25, 9.74 16.48, 9 41 M9 0 C8.76 12.16, 8.71 23.97, 9 41 M9 41 C5.89 40.96, 2.73 40.8, 0 41 M9 41 C6.82 41.06, 4.87 41.22, 0 41 M0 41 C1.08 25.09, -0.4 10.38, 0 0 M0 41 C0.24 31.5, 0.58 22.57, 0 0" stroke="#1e1e1e" stroke-width="2" fill="none"></path></g><g stroke-linecap="round" transform="translate(900 465) rotate(0 13.5 3)"><path d="M0 0 C9.05 -0.99, 20.09 -0.95, 27 0 M0 0 C10.71 -0.17, 20.97 -0.28, 27 0 M27 0 C27.21 2.07, 27.18 4.39, 27 6 M27 0 C27.08 2.22, 26.93 4.4, 27 6 M27 6 C20.39 6.51, 16.2 5.93, 0 6 M27 6 C19.49 5.81, 12.26 6.47, 0 6 M0 6 C-0.27 4.27, -0.21 2.31, 0 0 M0 6 C-0.11 3.75, 0.06 1.72, 0 0" stroke="#1e1e1e" stroke-width="2" fill="none"></path></g><g stroke-linecap="round" transform="translate(542 524) rotate(0 151.5 18)"><path d="M0 0 C114.01 1.57, 226 0.46, 303 0 M0 0 C76.07 -1.17, 151.26 -1.44, 303 0 M303 0 C302.25 11.73, 304.92 25.86, 303 36 M303 0 C301.73 14.12, 302.51 27.93, 303 36 M303 36 C228.35 36.14, 153.39 37.39, 0 36 M303 36 C218.04 35.33, 132.79 36.74, 0 36 M0 36 C-1.57 23.7, 0.41 11.98, 0 0 M0 36 C0.27 21.39, -0.45 9.05, 0 0" stroke="#1e1e1e" stroke-width="2" fill="none"></path></g><g stroke-linecap="round" transform="translate(850 333) rotate(0 74 62.5)"><path d="M0 0 C38.05 0.06, 75.28 -3.19, 148 0 M0 0 C36.14 -0.29, 70.79 0.05, 148 0 M148 0 C146.83 41.89, 147.95 83.28, 148 125 M148 0 C147.13 30.33, 146.15 60.57, 148 125 M148 125 C102.42 123.63, 57.26 123.66, 0 125 M148 125 C113.26 126.31, 79.82 126.06, 0 125 M0 125 C-0.59 87.08, 0.46 52.51, 0 0 M0 125 C-0.09 81.04, -1.34 34.49, 0 0" stroke="#1e1e1e" stroke-width="2" fill="none"></path></g><g transform="translate(867 382) rotate(0 57.88333511352539 12.5)"><text x="0" y="0" font-family="Virgil, Segoe UI Emoji" font-size="20px" fill="#1e1e1e" text-anchor="start" style="white-space: pre;" direction="ltr" dominant-baseline="text-before-edge">observatory</text></g><g stroke-linecap="round" transform="translate(899 318) rotate(0 13.5 3)"><path d="M0 0 C5.9 0.82, 14.04 0.65, 27 0 M0 0 C9.25 0.36, 17.71 0.36, 27 0 M27 0 C26.95 2.08, 27.13 4.09, 27 6 M27 0 C27.12 2.27, 26.84 4.72, 27 6 M27 6 C17.21 5.45, 6.56 6.31, 0 6 M27 6 C18.45 6.35, 10.17 6.35, 0 6 M0 6 C-0.11 3.51, -0.3 1.61, 0 0 M0 6 C-0.04 3.81, -0.06 1.45, 0 0" stroke="#1e1e1e" stroke-width="2" fill="none"></path></g><g stroke-linecap="round" transform="translate(173 370) rotate(0 334.5 21.5)"><path d="M0 0 C223.78 2.88, 448.44 2.04, 669 0 M0 0 C177.29 1.76, 354.65 2.22, 669 0 M669 0 C670.53 11.7, 667.53 25.05, 669 43 M669 0 C668.95 15.6, 668.6 30.97, 669 43 M669 43 C411.37 39.8, 154.7 41.17, 0 43 M669 43 C518.29 44.61, 367.15 44, 0 43 M0 43 C0.18 27.32, 0.25 16.59, 0 0 M0 43 C-0.57 29.36, 1.16 15.11, 0 0" stroke="#1e1e1e" stroke-width="2" fill="none"></path></g><g stroke-linecap="round" transform="translate(167 216) rotate(0 3.5 21)"><path d="M0 0 C1.8 -0.02, 4.07 0.17, 7 0 M0 0 C2.59 0.08, 5.38 0.06, 7 0 M7 0 C6.5 8.79, 7.64 19.89, 7 42 M7 0 C6.56 14.77, 7.05 29.19, 7 42 M7 42 C5.24 41.72, 3.27 42.26, 0 42 M7 42 C4.54 41.88, 2.38 41.9, 0 42 M0 42 C-0.08 29.48, 0.34 16.42, 0 0 M0 42 C-0.08 31.03, 0.1 20.82, 0 0" stroke="#1e1e1e" stroke-width="2" fill="none"></path></g><g transform="translate(887 435) rotate(0 38.56666564941406 12.5)"><text x="0" y="0" font-family="Virgil, Segoe UI Emoji" font-size="20px" fill="#1e1e1e" text-anchor="start" style="white-space: pre;" direction="ltr" dominant-baseline="text-before-edge">manifold</text></g><g stroke-linecap="round" transform="translate(850 177) rotate(0 74 62.5)"><path d="M-0.21 -0.28 L149.61 -1.71 L148.14 125.76 L0.98 125.36" stroke="none" stroke-width="0" fill="#ffffff"></path><path d="M0 0 C55.39 0.13, 109.5 -2.02, 148 0 M0 0 C44.94 -0.36, 91.51 -1.46, 148 0 M148 0 C148.74 29.1, 149.62 54.13, 148 125 M148 0 C148.17 47.35, 150.03 93.64, 148 125 M148 125 C113.31 125.08, 76.59 123.56, 0 125 M148 125 C90.77 126.15, 34.69 125.69, 0 125 M0 125 C-1.52 80.14, 1.89 34.05, 0 0 M0 125 C-0.06 87.79, 0.77 52.73, 0 0" stroke="#1e1e1e" stroke-width="2" fill="none"></path></g><g transform="translate(867 226) rotate(0 34.29999923706055 12.5)"><text x="0" y="0" font-family="Virgil, Segoe UI Emoji" font-size="20px" fill="#1e1e1e" text-anchor="start" style="white-space: pre;" direction="ltr" dominant-baseline="text-before-edge">hallway</text></g><g stroke-linecap="round" transform="translate(899 162) rotate(0 13.5 3)"><path d="M0 0 C10.19 0.48, 20.96 -0.66, 27 0 M0 0 C9.72 -0.02, 20.47 0.28, 27 0 M27 0 C27.26 2.5, 26.88 4.15, 27 6 M27 0 C26.94 2.06, 26.96 3.98, 27 6 M27 6 C18.71 5.6, 9.18 5.78, 0 6 M27 6 C18 5.81, 7.98 5.5, 0 6 M0 6 C-0.04 3.8, 0.05 1.61, 0 0 M0 6 C-0.03 4.59, 0.1 3.1, 0 0" stroke="#1e1e1e" stroke-width="2" fill="none"></path></g><g transform="translate(887 279) rotate(0 40.95000076293945 12.5)"><text x="0" y="0" font-family="Virgil, Segoe UI Emoji" font-size="20px" fill="#1e1e1e" text-anchor="start" style="white-space: pre;" direction="ltr" dominant-baseline="text-before-edge">hologram</text></g><g stroke-linecap="round" transform="translate(847 24) rotate(0 74 62.5)"><path d="M0 0 C46.26 -1.85, 94.75 1.31, 148 0 M0 0 C36.67 1.42, 72.62 0.83, 148 0 M148 0 C148.6 40.98, 149.4 81.31, 148 125 M148 0 C146.46 46.24, 146.89 91.22, 148 125 M148 125 C109.21 123.95, 72 122.22, 0 125 M148 125 C116.23 124.27, 84.76 124.88, 0 125 M0 125 C0.66 80.9, -1.46 39.86, 0 0 M0 125 C-0.8 82.33, -0.67 41.23, 0 0" stroke="#1e1e1e" stroke-width="2" fill="none"></path></g><g transform="translate(864 73) rotate(0 38.93333435058594 12.5)"><text x="0" y="0" font-family="Virgil, Segoe UI Emoji" font-size="20px" fill="#1e1e1e" text-anchor="start" style="white-space: pre;" direction="ltr" dominant-baseline="text-before-edge">sick bay</text></g><g transform="translate(884 126) rotate(0 36.68333435058594 12.5)"><text x="0" y="0" font-family="Virgil, Segoe UI Emoji" font-size="20px" fill="#1e1e1e" text-anchor="start" style="white-space: pre;" direction="ltr" dominant-baseline="text-before-edge">photons</text></g><g stroke-linecap="round" transform="translate(70 464) rotate(0 13.5 3)"><path d="M0 0 C6.36 0.34, 11.21 -0.7, 27 0 M0 0 C10.52 -0.23, 21.16 -0.11, 27 0 M27 0 C26.78 1.3, 26.97 2.67, 27 6 M27 0 C27.02 2.13, 27.05 4.42, 27 6 M27 6 C17.11 6.91, 7.67 6.62, 0 6 M27 6 C16.27 6.18, 6.51 5.7, 0 6 M0 6 C-0.06 4.13, 0.09 2.72, 0 0 M0 6 C0.11 4.38, 0.03 2.58, 0 0" stroke="#1e1e1e" stroke-width="2" fill="none"></path></g><g stroke-linecap="round" transform="translate(16 330) rotate(0 74 62.5)"><path d="M0 0 C54.06 0.86, 104.05 1.66, 148 0 M0 0 C34.49 -1.68, 69.26 -1.28, 148 0 M148 0 C147.06 28.88, 149.39 58.89, 148 125 M148 0 C147.94 43.55, 148.53 87.38, 148 125 M148 125 C104.52 125.39, 59.39 124.04, 0 125 M148 125 C93.94 126.12, 42.11 126.07, 0 125 M0 125 C-1.02 93.64, -2.54 63.37, 0 0 M0 125 C-0.02 97.14, 0.46 68.38, 0 0" stroke="#1e1e1e" stroke-width="2" fill="none"></path></g><g transform="translate(33 379) rotate(0 39.66666793823242 12.5)"><text x="0" y="0" font-family="Virgil, Segoe UI Emoji" font-size="20px" fill="#1e1e1e" text-anchor="start" style="white-space: pre;" direction="ltr" dominant-baseline="text-before-edge">holodeck</text></g><g stroke-linecap="round" transform="translate(65 315) rotate(0 13.5 3)"><path d="M0 0 C6.31 -0.41, 12.89 -0.5, 27 0 M0 0 C8.72 -0.51, 18.48 -0.1, 27 0 M27 0 C27.28 1.2, 26.9 2.83, 27 6 M27 0 C26.97 1.21, 27.06 2.83, 27 6 M27 6 C19.25 5.28, 9.06 6.32, 0 6 M27 6 C19.56 5.88, 12.49 6.32, 0 6 M0 6 C-0.09 4.39, -0.22 2.17, 0 0 M0 6 C-0.16 3.87, -0.17 1.44, 0 0" stroke="#1e1e1e" stroke-width="2" fill="none"></path></g><g transform="translate(53 432) rotate(0 39.400001525878906 12.5)"><text x="0" y="0" font-family="Virgil, Segoe UI Emoji" font-size="20px" fill="#1e1e1e" text-anchor="start" style="white-space: pre;" direction="ltr" dominant-baseline="text-before-edge">fuel cell</text></g><g stroke-linecap="round" transform="translate(10 173) rotate(0 74 62.5)"><path d="M0 0 C44.11 -0.88, 86.66 1.18, 148 0 M0 0 C53.22 0.82, 106.52 0.74, 148 0 M148 0 C146.88 33.31, 148.02 71.48, 148 125 M148 0 C148.63 42.8, 148.05 83.55, 148 125 M148 125 C100.33 126, 49.89 127.15, 0 125 M148 125 C96.08 125.22, 43.06 125.49, 0 125 M0 125 C1.18 86.62, -0.07 50.83, 0 0 M0 125 C-0.67 81.89, -1.13 38.84, 0 0" stroke="#1e1e1e" stroke-width="2" fill="none"></path></g><g transform="translate(27 222) rotate(0 36.36666488647461 12.5)"><text x="0" y="0" font-family="Virgil, Segoe UI Emoji" font-size="20px" fill="#1e1e1e" text-anchor="start" style="white-space: pre;" direction="ltr" dominant-baseline="text-before-edge">stables</text></g><g transform="translate(47 275) rotate(0 33.099998474121094 12.5)"><text x="0" y="0" font-family="Virgil, Segoe UI Emoji" font-size="20px" fill="#1e1e1e" text-anchor="start" style="white-space: pre;" direction="ltr" dominant-baseline="text-before-edge">wreath</text></g><g stroke-linecap="round" transform="translate(185 170) rotate(0 74 62.5)"><path d="M0 0 C54.41 2.34, 109.29 1.08, 148 0 M0 0 C38.19 0.08, 76.34 -0.57, 148 0 M148 0 C146.15 45.91, 149.01 93.88, 148 125 M148 0 C148.08 35.01, 146.88 71.99, 148 125 M148 125 C105.4 123.32, 61.2 122.95, 0 125 M148 125 C90.76 124.41, 35.05 123.49, 0 125 M0 125 C-0.05 79.35, -2.12 35.79, 0 0 M0 125 C0.82 75.99, 0.64 27.27, 0 0" stroke="#1e1e1e" stroke-width="2" fill="none"></path></g><g transform="translate(202 219) rotate(0 49.099998474121094 12.5)"><text x="0" y="0" font-family="Virgil, Segoe UI Emoji" font-size="20px" fill="#1e1e1e" text-anchor="start" style="white-space: pre;" direction="ltr" dominant-baseline="text-before-edge">engineering</text></g><g transform="translate(222 272) rotate(0 56.483333587646484 12.5)"><text x="0" y="0" font-family="Virgil, Segoe UI Emoji" font-size="20px" fill="#1e1e1e" text-anchor="start" style="white-space: pre;" direction="ltr" dominant-baseline="text-before-edge">molten lava</text></g><g stroke-linecap="round" transform="translate(355 174) rotate(0 74 62.5)"><path d="M0 0 C38.6 -0.32, 78.05 2, 148 0 M0 0 C34.04 0.26, 68.23 -0.59, 148 0 M148 0 C147.33 48.91, 147.28 96.5, 148 125 M148 0 C148.66 32.7, 148.85 65.13, 148 125 M148 125 C112.7 123.85, 78.59 125.69, 0 125 M148 125 C116.69 124.58, 85.12 124.61, 0 125 M0 125 C-2.06 89.56, 1.65 56.1, 0 0 M0 125 C-1.38 78.26, -1.48 30.08, 0 0" stroke="#1e1e1e" stroke-width="2" fill="none"></path></g><g transform="translate(378 204) rotate(0 48.266666412353516 25)"><text x="0" y="0" font-family="Virgil, Segoe UI Emoji" font-size="20px" fill="#1e1e1e" text-anchor="start" style="white-space: pre;" direction="ltr" dominant-baseline="text-before-edge">security</text><text x="0" y="25" font-family="Virgil, Segoe UI Emoji" font-size="20px" fill="#1e1e1e" text-anchor="start" style="white-space: pre;" direction="ltr" dominant-baseline="text-before-edge">checkpoint</text></g><g stroke-linecap="round" transform="translate(340 212) rotate(0 2.5 20)"><path d="M0 0 C2.03 -0.06, 4.17 0.09, 5 0 M0 0 C1.4 -0.01, 2.66 -0.06, 5 0 M5 0 C5.6 13.12, 4.12 28.14, 5 40 M5 0 C4.65 15.05, 4.58 30.02, 5 40 M5 40 C3.51 40.11, 2.2 40.23, 0 40 M5 40 C3.86 40.08, 2.5 39.87, 0 40 M0 40 C0.81 25.81, 0.58 11.18, 0 0 M0 40 C0.28 29.13, 0.36 17.49, 0 0" stroke="#1e1e1e" stroke-width="2" fill="none"></path></g><g stroke-linecap="round" transform="translate(411 158) rotate(0 13.5 3)"><path d="M0 0 C7.31 0.31, 13.84 -0.95, 27 0 M0 0 C10.78 -0.33, 21.34 -0.39, 27 0 M27 0 C26.74 1.26, 26.85 3.15, 27 6 M27 0 C26.9 1.49, 26.87 2.86, 27 6 M27 6 C15.96 6.83, 5.74 5.9, 0 6 M27 6 C18.62 6.16, 10.81 6.22, 0 6 M0 6 C0.19 4.93, 0.18 3.61, 0 0 M0 6 C-0.13 4.03, 0 2.11, 0 0" stroke="#1e1e1e" stroke-width="2" fill="none"></path></g><g stroke-linecap="round" transform="translate(354 24) rotate(0 74 62.5)"><path d="M0 0 C39.38 -0.75, 80.28 -0.07, 148 0 M0 0 C32.66 1.1, 66.49 0.7, 148 0 M148 0 C148.83 28.25, 148.43 51.95, 148 125 M148 0 C147.63 37.56, 147.29 76.66, 148 125 M148 125 C105.42 124.57, 62.94 124.55, 0 125 M148 125 C102.2 123.24, 54.89 123.51, 0 125 M0 125 C2.54 79.13, -0.58 36.77, 0 0 M0 125 C-0.8 96.27, -0.11 67.34, 0 0" stroke="#1e1e1e" stroke-width="2" fill="none"></path></g><g transform="translate(375 56) rotate(0 45.13333511352539 37.5)"><text x="0" y="0" font-family="Virgil, Segoe UI Emoji" font-size="20px" fill="#1e1e1e" text-anchor="start" style="white-space: pre;" direction="ltr" dominant-baseline="text-before-edge">pressure-</text><text x="0" y="25" font-family="Virgil, Segoe UI Emoji" font-size="20px" fill="#1e1e1e" text-anchor="start" style="white-space: pre;" direction="ltr" dominant-baseline="text-before-edge">sensitive</text><text x="0" y="50" font-family="Virgil, Segoe UI Emoji" font-size="20px" fill="#1e1e1e" text-anchor="start" style="white-space: pre;" direction="ltr" dominant-baseline="text-before-edge">floor</text></g><g stroke-linecap="round" transform="translate(411 10) rotate(0 13.5 3)"><path d="M0 0 C8.73 0.17, 16.75 -0.33, 27 0 M0 0 C7.35 0.12, 14.97 -0.1, 27 0 M27 0 C27.07 0.9, 27.02 2.37, 27 6 M27 0 C26.91 2.37, 26.97 4.4, 27 6 M27 6 C18.73 5.88, 11.81 6.78, 0 6 M27 6 C20.15 5.55, 14.15 5.5, 0 6 M0 6 C-0.25 3.77, -0.23 1.32, 0 0 M0 6 C-0.01 4.55, 0.11 2.83, 0 0" stroke="#1e1e1e" stroke-width="2" fill="none"></path></g><g stroke-linecap="round" transform="translate(339 65) rotate(0 2.5 20)"><path d="M0 0 C1.34 -0.18, 2.53 -0.04, 5 0 M0 0 C1.1 -0.09, 2.08 -0.11, 5 0 M5 0 C4.13 13.63, 5.02 27.93, 5 40 M5 0 C5.36 10.95, 4.65 21.99, 5 40 M5 40 C3.64 40.02, 2.53 39.84, 0 40 M5 40 C3.18 40.05, 1.44 40.09, 0 40 M0 40 C0.45 24.1, 0.02 9.08, 0 0 M0 40 C0.15 32.08, -0.53 23.82, 0 0" stroke="#1e1e1e" stroke-width="2" fill="none"></path></g><g stroke-linecap="round" transform="translate(10 477) rotate(0 74 62.5)"><path d="M0 0 C56.65 0.07, 109.43 0.29, 148 0 M0 0 C36.37 -1.55, 71.85 -0.38, 148 0 M148 0 C147.36 32.75, 148.72 67.94, 148 125 M148 0 C147.79 42.89, 148.34 84.96, 148 125 M148 125 C109.72 121.79, 69.1 124.49, 0 125 M148 125 C101.26 125.43, 56.63 124.67, 0 125 M0 125 C-0.17 75.83, 1.36 26.87, 0 0 M0 125 C1.78 92.72, 0.27 62.25, 0 0" stroke="#1e1e1e" stroke-width="2" fill="none"></path></g><g transform="translate(27 526) rotate(0 32.78333282470703 12.5)"><text x="0" y="0" font-family="Virgil, Segoe UI Emoji" font-size="20px" fill="#1e1e1e" text-anchor="start" style="white-space: pre;" direction="ltr" dominant-baseline="text-before-edge">kitchen</text></g><g stroke-linecap="round" transform="translate(164 512) rotate(0 2.5 20)"><path d="M0 0 C1.8 0.16, 3.52 0.1, 5 0 M0 0 C1.14 0.06, 2.19 0.05, 5 0 M5 0 C4.9 13.54, 4.66 27.91, 5 40 M5 0 C5.33 12.65, 5.17 25.03, 5 40 M5 40 C3.48 40.21, 1.99 40.09, 0 40 M5 40 C3.28 40.11, 1.72 39.94, 0 40 M0 40 C0.43 29.51, -0.19 18.66, 0 0 M0 40 C0.32 29.5, -0.02 18.78, 0 0" stroke="#1e1e1e" stroke-width="2" fill="none"></path></g><g stroke-linecap="round" transform="translate(185 477) rotate(0 74 62.5)"><path d="M0 0 C40.88 0.59, 79.33 2.26, 148 0 M0 0 C53.51 0.08, 104.54 0.56, 148 0 M148 0 C150.09 40.35, 147.65 79.94, 148 125 M148 0 C149.63 48.53, 148.63 99.09, 148 125 M148 125 C95 125.61, 44.43 127.43, 0 125 M148 125 C95.9 124.5, 44.94 124.48, 0 125 M0 125 C-0.38 84.98, 0.09 49.07, 0 0 M0 125 C1.53 79.65, 1.46 33, 0 0" stroke="#1e1e1e" stroke-width="2" fill="none"></path></g><g transform="translate(191 492) rotate(0 67.56666564941406 25)"><text x="0" y="0" font-family="Virgil, Segoe UI Emoji" font-size="20px" fill="#1e1e1e" text-anchor="start" style="white-space: pre;" direction="ltr" dominant-baseline="text-before-edge">hot chocolate</text><text x="0" y="25" font-family="Virgil, Segoe UI Emoji" font-size="20px" fill="#1e1e1e" text-anchor="start" style="white-space: pre;" direction="ltr" dominant-baseline="text-before-edge">fountain</text></g><g transform="translate(197 552) rotate(0 67.86666870117188 25)"><text x="0" y="0" font-family="Virgil, Segoe UI Emoji" font-size="20px" fill="#1e1e1e" text-anchor="start" style="white-space: pre;" direction="ltr" dominant-baseline="text-before-edge">giant</text><text x="0" y="25" font-family="Virgil, Segoe UI Emoji" font-size="20px" fill="#1e1e1e" text-anchor="start" style="white-space: pre;" direction="ltr" dominant-baseline="text-before-edge">electromagnet</text></g><g stroke-linecap="round" transform="translate(179 624) rotate(0 74 62.5)"><path d="M0 0 C42.28 0.31, 87.42 1.54, 148 0 M0 0 C47.36 0.45, 93.96 0.23, 148 0 M148 0 C146.47 29.55, 147.86 58.9, 148 125 M148 0 C147.73 38.19, 148.33 75.74, 148 125 M148 125 C114.9 122.99, 81.7 122.25, 0 125 M148 125 C116.24 123.31, 85.37 124.45, 0 125 M0 125 C0.59 74.36, 1.05 26.35, 0 0 M0 125 C0.32 79.4, 0.72 33.41, 0 0" stroke="#1e1e1e" stroke-width="2" fill="none"></path></g><g stroke-linecap="round" transform="translate(235 610) rotate(0 13.5 3)"><path d="M0 0 C9.34 0.39, 19.38 0.58, 27 0 M0 0 C5.58 -0.02, 10.56 -0.14, 27 0 M27 0 C26.83 1.59, 27.06 3.74, 27 6 M27 0 C26.99 1.96, 26.97 3.71, 27 6 M27 6 C20.02 5.83, 15.24 5.21, 0 6 M27 6 C18.57 5.94, 9.89 5.81, 0 6 M0 6 C0.17 4.61, 0.07 3.07, 0 0 M0 6 C-0.09 3.76, 0.11 1.33, 0 0" stroke="#1e1e1e" stroke-width="2" fill="none"></path></g><g transform="translate(213 664) rotate(0 36.849998474121094 12.5)"><text x="0" y="0" font-family="Virgil, Segoe UI Emoji" font-size="20px" fill="#1e1e1e" text-anchor="start" style="white-space: pre;" direction="ltr" dominant-baseline="text-before-edge">corridor</text></g><g transform="translate(205 722) rotate(0 51.78333282470703 12.5)"><text x="0" y="0" font-family="Virgil, Segoe UI Emoji" font-size="20px" fill="#1e1e1e" text-anchor="start" style="white-space: pre;" direction="ltr" dominant-baseline="text-before-edge">fixed point</text></g><g stroke-linecap="round" transform="translate(440 618) rotate(0 13.5 3)"><path d="M0 0 C10.12 -0.01, 19.68 -0.67, 27 0 M0 0 C8.69 0.23, 16.57 0.18, 27 0 M27 0 C27.1 2.46, 27.06 4.98, 27 6 M27 0 C26.9 1.52, 27.09 2.9, 27 6 M27 6 C16.65 5.82, 6.2 6.98, 0 6 M27 6 C20.6 5.97, 14.65 5.51, 0 6 M0 6 C-0.25 4.64, 0.18 2.75, 0 0 M0 6 C0.04 4.19, -0.1 2.22, 0 0" stroke="#1e1e1e" stroke-width="2" fill="none"></path></g><g stroke-linecap="round" transform="translate(386 484) rotate(0 74 62.5)"><path d="M0 0 C57.1 -1.26, 115.94 0.72, 148 0 M0 0 C42.75 -0.32, 86.75 -0.96, 148 0 M148 0 C148.97 45.96, 147.24 87.14, 148 125 M148 0 C148.04 42.56, 148.12 83.62, 148 125 M148 125 C89.34 126.27, 30.25 122.59, 0 125 M148 125 C110.23 124.26, 72.68 125.12, 0 125 M0 125 C2.25 99.84, 1.17 74.97, 0 0 M0 125 C-1.02 95.94, -1.19 68.08, 0 0" stroke="#1e1e1e" stroke-width="2" fill="none"></path></g><g transform="translate(403 533) rotate(0 33.79999923706055 12.5)"><text x="0" y="0" font-family="Virgil, Segoe UI Emoji" font-size="20px" fill="#1e1e1e" text-anchor="start" style="white-space: pre;" direction="ltr" dominant-baseline="text-before-edge">arcade</text></g><g transform="translate(423 586) rotate(0 34.38333511352539 12.5)"><text x="0" y="0" font-family="Virgil, Segoe UI Emoji" font-size="20px" fill="#1e1e1e" text-anchor="start" style="white-space: pre;" direction="ltr" dominant-baseline="text-before-edge">boulder</text></g><g stroke-linecap="round" transform="translate(380 631) rotate(0 74 62.5)"><path d="M0 0 C51.91 -1.41, 102.71 0.76, 148 0 M0 0 C40.19 -0.32, 80.6 -1.18, 148 0 M148 0 C149.62 31.67, 149.01 62.07, 148 125 M148 0 C148.86 25.12, 150.02 50.03, 148 125 M148 125 C118.31 123.67, 86.61 123.63, 0 125 M148 125 C104.38 124.37, 59.01 123.83, 0 125 M0 125 C1.29 82.12, -0.52 40.13, 0 0 M0 125 C0.83 91.45, 1.24 56.04, 0 0" stroke="#1e1e1e" stroke-width="2" fill="none"></path></g><g transform="translate(396 642) rotate(0 57.45000076293945 25)"><text x="0" y="0" font-family="Virgil, Segoe UI Emoji" font-size="20px" fill="#1e1e1e" text-anchor="start" style="white-space: pre;" direction="ltr" dominant-baseline="text-before-edge">warp drive</text><text x="0" y="25" font-family="Virgil, Segoe UI Emoji" font-size="20px" fill="#1e1e1e" text-anchor="start" style="white-space: pre;" direction="ltr" dominant-baseline="text-before-edge">maintenance</text></g><g transform="translate(407 727) rotate(0 54.13333511352539 12.5)"><text x="0" y="0" font-family="Virgil, Segoe UI Emoji" font-size="20px" fill="#1e1e1e" text-anchor="start" style="white-space: pre;" direction="ltr" dominant-baseline="text-before-edge">escape pod</text></g><g stroke-linecap="round" transform="translate(724 773) rotate(0 13.5 3)"><path d="M0 0 C8.43 -0.29, 16.25 -0.5, 27 0 M0 0 C10.19 0.03, 20.18 0.1, 27 0 M27 0 C27.18 2.28, 26.69 4.51, 27 6 M27 0 C27.05 2.14, 27.04 4.15, 27 6 M27 6 C21.25 6.72, 14.66 6.88, 0 6 M27 6 C19.13 5.81, 12.07 6.26, 0 6 M0 6 C0.08 4.3, 0.27 2.69, 0 0 M0 6 C-0.04 4.08, 0.06 2, 0 0" stroke="#1e1e1e" stroke-width="2" fill="none"></path></g><g stroke-linecap="round" transform="translate(670 639) rotate(0 74 62.5)"><path d="M0 0 C37.84 2.15, 74.78 1.53, 148 0 M0 0 C29.98 0.62, 60.8 -0.84, 148 0 M148 0 C146.01 38.69, 147.9 76.61, 148 125 M148 0 C146.99 42.21, 147.89 83.23, 148 125 M148 125 C92.97 124.57, 39.47 127.04, 0 125 M148 125 C91.56 124.84, 33.85 125.81, 0 125 M0 125 C0.01 95.18, 1.72 64.39, 0 0 M0 125 C-0.78 79.8, -0.66 34.22, 0 0" stroke="#1e1e1e" stroke-width="2" fill="none"></path></g><g transform="translate(687 688) rotate(0 52.63333511352539 12.5)"><text x="0" y="0" font-family="Virgil, Segoe UI Emoji" font-size="20px" fill="#1e1e1e" text-anchor="start" style="white-space: pre;" direction="ltr" dominant-baseline="text-before-edge">science lab</text></g><g stroke-linecap="round" transform="translate(664 786) rotate(0 74 62.5)"><path d="M0 0 C39.25 -1, 77.72 -0.36, 148 0 M0 0 C31.1 1.27, 63.78 0.41, 148 0 M148 0 C146.81 49.31, 148.64 97.09, 148 125 M148 0 C147.52 26.9, 148.27 51.57, 148 125 M148 125 C99.69 124.63, 50.74 125.61, 0 125 M148 125 C97.51 123.01, 47.05 124.29, 0 125 M0 125 C-2.28 96.99, -3.13 71, 0 0 M0 125 C-1.09 84.6, 0.06 44.84, 0 0" stroke="#1e1e1e" stroke-width="2" fill="none"></path></g><g transform="translate(683 795) rotate(0 45.04999923706055 12.5)"><text x="0" y="0" font-family="Virgil, Segoe UI Emoji" font-size="20px" fill="#1e1e1e" text-anchor="start" style="white-space: pre;" direction="ltr" dominant-baseline="text-before-edge">passages</text></g><g transform="translate(691 882) rotate(0 33 25)"><text x="0" y="0" font-family="Virgil, Segoe UI Emoji" font-size="20px" fill="#1e1e1e" text-anchor="start" style="white-space: pre;" direction="ltr" dominant-baseline="text-before-edge">polygon</text><text x="0" y="25" font-family="Virgil, Segoe UI Emoji" font-size="20px" fill="#1e1e1e" text-anchor="start" style="white-space: pre;" direction="ltr" dominant-baseline="text-before-edge"></text></g><g stroke-linecap="round" transform="translate(722 920) rotate(0 13.5 3)"><path d="M0 0 C9.29 0.68, 17.73 0.38, 27 0 M0 0 C6.49 -0.35, 14.31 -0.26, 27 0 M27 0 C26.92 1.59, 27.07 2.97, 27 6 M27 0 C27.11 2.01, 27.04 3.79, 27 6 M27 6 C17.15 5.1, 6.28 5.23, 0 6 M27 6 C18.25 6.24, 9.05 6.31, 0 6 M0 6 C0.28 4.91, 0.12 3.47, 0 0 M0 6 C-0.14 3.94, 0.12 2.05, 0 0" stroke="#1e1e1e" stroke-width="2" fill="none"></path></g><g stroke-linecap="round" transform="translate(665 934) rotate(0 74 62.5)"><path d="M0 0 C50.58 -0.6, 102.46 0.12, 148 0 M0 0 C31.37 -0.56, 61.5 0.38, 148 0 M148 0 C149.51 24.1, 149.86 51.55, 148 125 M148 0 C149.35 40.93, 148.38 82.63, 148 125 M148 125 C94.05 126.09, 36.89 125.51, 0 125 M148 125 C100.28 124.34, 53.88 125.2, 0 125 M0 125 C0.15 81.96, -1.17 39.78, 0 0 M0 125 C-0.65 98.53, 0.18 69.81, 0 0" stroke="#1e1e1e" stroke-width="2" fill="none"></path></g><g transform="translate(684 943) rotate(0 61.5 25)"><text x="0" y="0" font-family="Virgil, Segoe UI Emoji" font-size="20px" fill="#1e1e1e" text-anchor="start" style="white-space: pre;" direction="ltr" dominant-baseline="text-before-edge">gift wrapping</text><text x="0" y="25" font-family="Virgil, Segoe UI Emoji" font-size="20px" fill="#1e1e1e" text-anchor="start" style="white-space: pre;" direction="ltr" dominant-baseline="text-before-edge">center</text></g><g transform="translate(692 1030) rotate(0 55.5 12.5)"><text x="0" y="0" font-family="Virgil, Segoe UI Emoji" font-size="20px" fill="#1e1e1e" text-anchor="start" style="white-space: pre;" direction="ltr" dominant-baseline="text-before-edge">infinite loop</text></g><g stroke-linecap="round" transform="translate(853 787) rotate(0 74 62.5)"><path d="M0 0 C29.74 0.67, 61.25 0.17, 148 0 M0 0 C51.06 1.66, 101.21 1.96, 148 0 M148 0 C149.66 37.87, 148.75 80.75, 148 125 M148 0 C148.81 25.92, 149.59 51.68, 148 125 M148 125 C118.49 127.06, 86.16 126.38, 0 125 M148 125 C89.69 124.73, 31.56 123.34, 0 125 M0 125 C-0.79 81.12, -1.09 39.57, 0 0 M0 125 C-0.36 90.55, -0.99 56.44, 0 0" stroke="#1e1e1e" stroke-width="2" fill="none"></path></g><g transform="translate(872 796) rotate(0 42.96666717529297 25)"><text x="0" y="0" font-family="Virgil, Segoe UI Emoji" font-size="20px" fill="#1e1e1e" text-anchor="start" style="white-space: pre;" direction="ltr" dominant-baseline="text-before-edge">crew</text><text x="0" y="25" font-family="Virgil, Segoe UI Emoji" font-size="20px" fill="#1e1e1e" text-anchor="start" style="white-space: pre;" direction="ltr" dominant-baseline="text-before-edge">quarters</text></g><g stroke-linecap="round" transform="translate(911 921) rotate(0 13.5 3)"><path d="M0 0 C8.15 -0.4, 14.4 0.79, 27 0 M0 0 C6.3 0.1, 12.61 0.4, 27 0 M27 0 C26.91 1.87, 26.71 3.37, 27 6 M27 0 C26.94 1.93, 26.85 3.8, 27 6 M27 6 C18.92 6.53, 10.28 5.56, 0 6 M27 6 C15.92 6.33, 5.93 5.73, 0 6 M0 6 C-0.1 3.65, -0.06 1.7, 0 0 M0 6 C0.04 3.87, -0.06 1.57, 0 0" stroke="#1e1e1e" stroke-width="2" fill="none"></path></g><g stroke-linecap="round" transform="translate(852 939) rotate(0 74 62.5)"><path d="M0 0 C48.74 1.09, 94.42 -1.33, 148 0 M0 0 C49.02 -0.04, 98.24 1.35, 148 0 M148 0 C146.92 25.15, 149.24 53.79, 148 125 M148 0 C147.53 33.41, 148.84 66.11, 148 125 M148 125 C94.65 126.93, 42.82 126.47, 0 125 M148 125 C92.98 125.73, 39.35 124.92, 0 125 M0 125 C0.75 81.71, -1.94 42.21, 0 0 M0 125 C-0.63 77.1, -0.72 29.39, 0 0" stroke="#1e1e1e" stroke-width="2" fill="none"></path></g><g transform="translate(871 948) rotate(0 38.06666564941406 12.5)"><text x="0" y="0" font-family="Virgil, Segoe UI Emoji" font-size="20px" fill="#1e1e1e" text-anchor="start" style="white-space: pre;" direction="ltr" dominant-baseline="text-before-edge">storage</text></g><g transform="translate(891 1034) rotate(0 51.56666564941406 12.5)"><text x="0" y="0" font-family="Virgil, Segoe UI Emoji" font-size="20px" fill="#1e1e1e" text-anchor="start" style="white-space: pre;" direction="ltr" dominant-baseline="text-before-edge">tambourine</text></g></svg>